<?xml version="1.0" encoding="UTF-8" standalone="no"?>
<svg
   xmlns:dc="http://purl.org/dc/elements/1.1/"
   xmlns:cc="http://creativecommons.org/ns#"
   xmlns:rdf="http://www.w3.org/1999/02/22-rdf-syntax-ns#"
   xmlns:svg="http://www.w3.org/2000/svg"
   xmlns="http://www.w3.org/2000/svg"
   version="1.1"
   id="svg2"
   viewBox="0 0 110.62893 49.149612"
   height="13.871113mm"
   width="31.221943mm">
  <defs
     id="defs4">
    <marker
       style="overflow:visible"
       id="Arrow2Lend"
       refX="0"
       refY="0"
       orient="auto">
      <path
         transform="matrix(-1.1,0,0,-1.1,-1.1,0)"
         d="M 8.7185878,4.0337352 -2.2072895,0.01601326 8.7185884,-4.0017078 c -1.7454984,2.3720609 -1.7354408,5.6174519 -6e-7,8.035443 z"
         style="fill:#3dc2a6;fill-opacity:1;fill-rule:evenodd;stroke:#3dc2a6;stroke-width:0.625;stroke-linejoin:round;stroke-opacity:1"
         id="path4185" />
    </marker>
  </defs>
  <metadata
     id="metadata7">
    <rdf:RDF>
      <cc:Work
         rdf:about="">
        <dc:format>image/svg+xml</dc:format>
        <dc:type
           rdf:resource="http://purl.org/dc/dcmitype/StillImage" />
        <dc:title></dc:title>
      </cc:Work>
    </rdf:RDF>
  </metadata>
  <g
     transform="translate(-397.02925,-264.28534)"
     id="layer1">
    <path
       d="m 120.39169,162.71725 c 0.62588,0.98246 1.29873,1.93654 1.87765,2.94739 2.3851,4.16467 6.89776,12.96068 8.67871,16.50859 6.62685,13.2017 12.23596,25.17132 19.07726,38.50682 4.37245,8.52307 8.94123,16.94398 13.41184,25.41596 13.54623,24.94323 28.42279,49.13951 44.80643,72.3202 4.81679,6.81512 9.67136,13.61262 14.85068,20.15646 14.16497,17.89681 17.91431,20.85933 33.81396,37.05779 18.94444,17.77772 39.5388,33.74029 61.4691,47.66067 8.92445,5.66484 11.5382,6.9546 20.37673,11.84696 2.51775,1.26108 5.03551,2.52216 7.55326,3.78324 0,0 -11.49605,7.52825 -11.49605,7.52825 l 0,0 c -2.421,-1.34392 -4.842,-2.68784 -7.26299,-4.03175 -3.02315,-1.80627 -6.08475,-3.54968 -9.06943,-5.41881 -25.52089,-15.98224 -49.08174,-34.95525 -70.91302,-55.6575 -14.55112,-14.91747 -20.98047,-20.6993 -33.88393,-37.20242 -5.14176,-6.57616 -9.84168,-13.48849 -14.58351,-20.35861 -16.14292,-23.3884 -30.75398,-47.74991 -44.60747,-72.55381 -18.11543,-32.86385 -9.03446,-16.629 -26.50291,-47.44001 -4.72607,-8.33589 -9.28818,-16.64985 -14.3391,-24.78172 -3.2821,-5.2841 -3.07483,-4.86335 -6.07478,-8.65069 0,0 12.81757,-7.63701 12.81757,-7.63701 z"
       id="path4138"
       style="fill:#000000;fill-opacity:0" />
    <path
       d="m 283.12371,323.8099 c -1.74162,0.56236 -2.26171,0.70574 -4.12614,1.43996 -4.73891,1.86621 -2.33773,1.12071 -7.53709,2.93114 -4.7462,1.65263 -5.35125,1.74798 -10.34472,3.18304 -8.12153,1.73684 -16.44513,2.8955 -24.76447,3.00222 -5.96331,0.0765 -22.43895,-0.77963 -27.91825,-1.01261 -5.27178,-0.22415 -10.54454,-0.42468 -15.81682,-0.63702 -19.40801,-0.64619 -38.87876,-0.25109 -58.14879,2.28739 -9.19012,1.21064 -12.01065,1.88741 -20.73192,3.58896 -5.60417,1.0644 -10.99231,2.81813 -16.27688,4.91318 0,0 11.43223,-8.9422 11.43223,-8.9422 l 0,0 c 5.12137,-1.7567 10.31916,-3.24108 15.6718,-4.14371 8.54076,-1.48754 11.30069,-2.07782 20.29947,-3.13704 19.20157,-2.26016 38.56735,-2.53304 57.87486,-1.86217 5.31318,0.1831 10.62605,0.37549 15.93955,0.5493 17.94624,0.58706 36.13734,1.44532 53.66829,-3.26903 5.14616,-1.56674 5.57185,-1.61401 10.46079,-3.40656 5.53831,-2.03065 2.61827,-1.07894 7.77717,-3.09807 1.805,-0.70646 2.6905,-0.9729 4.42942,-1.54034 0,0 -11.8885,9.15356 -11.8885,9.15356 z"
       id="path4142"
       style="fill:#000000;fill-opacity:0" />
    <path
       d="m 122.45569,341.0437 c 4.63004,0.50295 9.23527,1.1905 13.83943,1.88403 11.38141,2.20826 23.00126,2.47211 34.55034,2.90847 28.1959,0.70534 56.40357,0.79746 84.60695,0.84873 19.81527,0.0345 39.67906,0.23099 59.42006,-1.78621 8.62335,-0.88116 11.04479,-1.44337 19.15585,-2.8729 4.18175,-0.96827 7.43136,-1.55343 11.38534,-3.01075 1.18103,-0.43529 4.53082,-2.18441 3.44181,-1.55327 -11.61713,6.73279 -12.02384,7.96413 -7.80711,2.65488 0,0 13.3551,-5.81337 13.3551,-5.81337 l 0,0 c -0.6239,1.02581 -0.89595,2.37784 -1.87171,3.07744 -11.29995,8.10188 -17.01513,10.72154 -29.46954,12.88725 -8.05026,1.21091 -10.08291,1.63773 -18.66076,2.35429 -19.61368,1.63845 -39.30305,1.34552 -58.96354,1.33712 -28.50874,-0.003 -57.0197,0.17727 -85.52659,-0.2265 -11.91266,-0.23066 -23.89419,-0.29836 -35.6724,-2.31747 -4.63702,-0.69422 -9.27869,-1.4175 -13.9632,-1.70663 0,0 12.17997,-8.66511 12.17997,-8.66511 z"
       id="path4144"
       style="fill:#000000;fill-opacity:0" />
    <path
       id="path4154"
       d="m 507.38866,274.58267 c 0,0 -67.18501,-38.40995 -109.30101,37.20962"
       style="fill:none;fill-opacity:1;fill-rule:evenodd;stroke:#3dc2a6;stroke-width:1.08607233px;stroke-linecap:butt;stroke-linejoin:miter;stroke-opacity:1;marker-end:url(#Arrow2Lend)" />
  </g>
</svg>
