<?xml version="1.0" encoding="UTF-8"?>
<svg width="110px" height="110px" viewBox="0 0 110 110" version="1.1" xmlns="http://www.w3.org/2000/svg" xmlns:xlink="http://www.w3.org/1999/xlink">
    <!-- Generator: sketchtool 42 (36781) - http://www.bohemiancoding.com/sketch -->
    <title>81C935FF-65C9-4DB2-ABAA-6DB84CD70D36</title>
    <desc>Created with sketchtool.</desc>
    <defs></defs>
    <g id="Landing" stroke="none" stroke-width="1" fill="none" fill-rule="evenodd">
        <g transform="translate(-664.000000, -8940.000000)" id="Group-6">
            <g transform="translate(149.000000, 8649.000000)">
                <g id="Facebook" transform="translate(515.000000, 291.000000)">
                    <path d="M0,55 C0,24.6243373 24.6243373,0 55,0 C85.3756627,0 110,24.6243373 110,55 C110,85.3756627 85.3756627,110 55,110 C24.6243373,110 0,85.3756627 0,55 Z" id="back" fill="#3B5998"></path>
                    <path d="M58.8993971,85.5054675 L58.8993971,55.5825637 L67.1594272,55.5825637 L68.2540595,45.2709653 L58.8993971,45.2709653 L58.9134308,40.1099111 C58.9134308,37.4204874 59.168962,35.9794328 63.0317511,35.9794328 L68.1955856,35.9794328 L68.1955856,25.6666667 L59.934386,25.6666667 C50.0113567,25.6666667 46.5187077,30.6689013 46.5187077,39.0810869 L46.5187077,45.2721331 L40.3333333,45.2721331 L40.3333333,55.5837315 L46.5187077,55.5837315 L46.5187077,85.5054675 L58.8993971,85.5054675 Z" id="Shape" fill="#FFFFFF"></path>
                </g>
            </g>
        </g>
    </g>
</svg>