<?xml version="1.0" encoding="UTF-8"?>
<svg viewBox="0 0 278 152" version="1.1" xmlns="http://www.w3.org/2000/svg" xmlns:xlink="http://www.w3.org/1999/xlink">
    <!-- Generator: sketchtool 42 (36781) - http://www.bohemiancoding.com/sketch -->
    <title>EC872623-BFFF-428D-8E13-7A5C93401C02</title>
    <desc>Created with sketchtool.</desc>
    <defs></defs>
    <g id="Landing" stroke="none" stroke-width="1" fill="none" fill-rule="evenodd">
        <g transform="translate(-156.000000, -141.000000)" id="big-logo" fill="#bbc3c9">
            <g transform="translate(156.000000, 141.000000)">
                <path d="M226.326762,45.7146169 C257.819105,70.6352767 278,108.690148 278,151.277521 C278,151.520507 277.995026,151.760254 277.985079,152 L0.0149205668,152 C0.00497352226,151.740815 0,151.510788 0,151.277521 C0,108.690148 20.1825533,70.6352767 51.6732384,45.7146169 L22.4902676,9.35578885 C20.4743333,6.84169212 20.9236081,3.20499937 23.496577,1.23195181 C26.0712037,-0.737855941 29.7930562,-0.298860958 31.8106483,2.21523577 L61.1743237,38.8008509 C83.3943633,24.0742701 110.186728,15.459601 139.001658,15.459601 C167.81493,15.459601 194.605637,24.0742701 216.825676,38.8008509 L246.189352,2.21523577 C248.208602,-0.298860958 251.930454,-0.737855941 254.503423,1.23195181 C257.07805,3.20499937 257.527325,6.84169212 255.509732,9.35578885 L226.326762,45.7146169 Z M140.33277,129.121703 C195.758584,129.121703 240.690208,123.034178 240.690208,98.4924591 C240.690208,73.9507406 195.758584,62.9352185 140.33277,62.9352185 C84.906956,62.9352185 39.9769941,73.9507406 39.9769941,98.4924591 C39.9769941,123.034178 84.906956,129.121703 140.33277,129.121703 Z M207.70144,96.5022625 C207.70144,106.440144 202.42192,114.497885 195.910235,114.497885 C189.39855,114.497885 184.11903,106.440144 184.11903,96.5022625 C184.11903,86.5643815 189.39855,78.50664 195.910235,78.50664 C202.42192,78.50664 207.70144,86.5643815 207.70144,96.5022625 Z M97.9690703,96.5022625 C97.9690703,106.440144 92.6895504,114.497885 86.1778653,114.497885 C79.6661802,114.497885 74.3866603,106.440144 74.3866603,96.5022625 C74.3866603,86.5643815 79.6661802,78.50664 86.1778653,78.50664 C92.6895504,78.50664 97.9690703,86.5643815 97.9690703,96.5022625 Z" id="Combined-Shape"></path>
            </g>
        </g>
    </g>
</svg>